<?xml version="1.0" standalone="no"?>
<!DOCTYPE svg PUBLIC "-//W3C//DTD SVG 20010904//EN"
 "http://www.w3.org/TR/2001/REC-SVG-20010904/DTD/svg10.dtd">
<svg version="1.0" xmlns="http://www.w3.org/2000/svg"
 width="1024.000000pt" height="1280.000000pt" viewBox="0 0 1024.000000 1280.000000"
 preserveAspectRatio="xMidYMid meet">

<g transform="translate(0.000000,1280.000000) scale(0.100000,-0.100000)"
fill="#000000" stroke="none">
<path d="M4940 9412 c-544 -308 -909 -617 -1229 -1040 -35 -46 -61 -85 -58
-88 2 -2 51 33 108 79 435 349 1024 706 1544 934 77 34 141 66 143 71 1 5 -26
17 -60 27 -35 9 -88 25 -118 35 -61 20 -144 45 -175 53 -13 3 -67 -21 -155
-71z"/>
<path d="M5780 9361 c-96 -33 -211 -74 -255 -91 -616 -244 -1373 -674 -1843
-1047 -104 -82 -276 -242 -269 -250 2 -2 58 27 123 63 186 105 457 229 884
407 734 305 1745 639 2143 707 69 12 83 24 45 36 -13 3 -153 56 -311 116 -159
60 -301 111 -315 114 -17 3 -91 -17 -202 -55z"/>
<path d="M7350 9074 c-19 -2 -105 -9 -190 -15 -190 -13 -505 -57 -745 -103
-885 -170 -1808 -493 -2825 -988 -339 -165 -1148 -604 -1135 -616 1 -2 51 16
111 39 527 201 1185 405 1639 509 782 180 1468 226 2035 139 277 -43 544 -113
754 -199 55 -22 105 -40 112 -40 7 0 95 70 196 156 101 86 237 202 302 258 66
55 140 119 165 141 40 35 250 213 400 340 246 207 351 299 351 306 0 4 -15 11
-32 13 -18 3 -73 13 -123 21 -168 28 -459 45 -723 43 -141 0 -273 -3 -292 -4z"/>
<path d="M5235 7889 c-313 -24 -720 -92 -1080 -179 -194 -48 -516 -136 -740
-205 -114 -34 -459 -132 -650 -184 -183 -49 -408 -96 -655 -137 -129 -21 -469
-30 -566 -15 -37 6 -70 9 -72 6 -12 -12 198 -122 308 -161 226 -81 407 -108
720 -107 432 1 773 60 1565 269 717 190 1005 249 1450 295 296 30 709 31 948
0 453 -57 805 -179 1112 -383 50 -33 99 -68 110 -78 78 -67 40 -4 -86 144
-369 432 -919 680 -1628 736 -155 12 -574 11 -736 -1z"/>
<path d="M5890 7264 c-392 -32 -606 -66 -1020 -159 -170 -38 -621 -130 -734
-150 -44 -7 -39 -17 19 -33 93 -26 223 -34 445 -29 258 6 454 29 910 106 489
82 616 95 915 96 219 0 283 -4 405 -23 250 -38 448 -97 654 -195 64 -31 116
-53 116 -49 -1 10 -117 94 -202 146 -234 142 -488 228 -805 271 -112 16 -589
29 -703 19z"/>
<path d="M5901 6565 c-248 -56 -404 -252 -418 -525 -8 -157 24 -256 112 -343
34 -33 67 -53 121 -73 67 -24 83 -26 176 -22 78 4 117 11 158 28 70 30 146 83
193 136 41 46 100 155 89 165 -6 5 -170 29 -200 29 -5 0 -17 -17 -25 -38 -64
-161 -285 -205 -372 -74 -86 130 -22 411 115 503 73 49 167 63 233 35 40 -16
86 -69 94 -107 6 -33 18 -34 146 -22 l69 6 -7 36 c-11 63 -54 138 -106 185
-87 79 -242 112 -378 81z"/>
<path d="M1385 6548 c-12 -31 -204 -904 -205 -927 0 -20 470 -10 558 13 97 25
171 67 238 138 104 108 154 235 154 393 0 219 -107 357 -297 385 -104 15 -442
13 -448 -2z m427 -172 c64 -27 92 -74 103 -173 19 -167 -84 -363 -212 -407
-63 -22 -273 -23 -273 -2 0 8 12 63 26 123 44 186 94 417 94 434 0 41 26 49
131 44 54 -3 114 -11 131 -19z"/>
<path d="M2306 6248 c-38 -172 -84 -378 -103 -457 -18 -80 -32 -152 -31 -160
3 -12 22 -15 106 -16 56 0 102 1 102 2 0 0 18 81 40 180 22 98 49 219 60 268
36 163 99 443 106 469 l6 26 -109 0 -109 0 -68 -312z"/>
<path d="M2762 6508 c-20 -92 -102 -461 -112 -503 -20 -81 -80 -364 -80 -379
0 -12 49 -14 357 -13 l356 2 18 75 c10 41 18 78 19 83 0 4 -112 7 -250 7 -195
0 -250 3 -250 13 0 15 131 604 154 694 9 33 16 64 16 67 0 3 -49 6 -109 6
l-108 0 -11 -52z"/>
<path d="M3615 6096 c-153 -255 -279 -468 -279 -473 -1 -4 44 -9 100 -11 117
-3 104 -11 180 117 l50 86 196 3 196 2 12 -87 c18 -127 14 -123 125 -123 75 0
95 3 95 14 0 8 -16 108 -36 223 -20 114 -55 321 -79 458 l-42 250 -120 3 -119
3 -279 -465z m388 67 c14 -92 24 -169 23 -171 -2 -1 -60 -1 -129 0 l-126 3 97
167 c53 92 100 167 103 168 3 0 17 -75 32 -167z"/>
<path d="M4615 6538 c-3 -13 -16 -71 -30 -130 -13 -59 -38 -171 -56 -250 -17
-79 -51 -230 -75 -337 -24 -106 -41 -197 -38 -202 3 -5 48 -9 99 -9 90 0 95 1
99 23 3 12 30 135 60 272 30 138 57 265 61 283 4 19 11 30 15 25 5 -4 63 -136
129 -292 67 -156 126 -290 133 -298 8 -10 34 -13 102 -11 l90 3 8 30 c4 17 26
111 47 210 59 266 108 487 135 598 17 72 20 100 11 103 -6 3 -52 4 -101 2
l-88 -3 -66 -292 c-36 -160 -68 -294 -71 -297 -3 -3 -63 130 -133 294 l-129
300 -98 0 c-94 0 -99 -1 -104 -22z"/>
<path d="M6615 6548 c-8 -23 -65 -269 -100 -433 -19 -88 -50 -231 -70 -319
-20 -87 -34 -163 -32 -169 3 -10 196 -12 205 -2 2 2 21 84 43 182 22 98 41
188 44 201 5 22 7 22 191 22 l186 0 -7 -37 c-3 -21 -22 -109 -41 -195 -19 -86
-34 -162 -34 -167 0 -7 38 -11 105 -11 100 0 105 1 110 23 3 12 20 94 39 182
19 88 62 282 95 430 34 149 61 278 61 288 0 15 -12 17 -104 17 l-105 0 -11
-57 c-7 -32 -24 -112 -39 -178 l-27 -120 -187 -3 c-103 -1 -187 1 -187 5 0 5
18 84 40 176 22 93 40 171 40 173 0 2 -47 4 -105 4 -75 0 -107 -4 -110 -12z"/>
<path d="M7612 6093 c-154 -258 -279 -470 -277 -473 2 -3 51 -4 109 -2 l107 3
57 99 c68 118 54 113 292 108 l155 -3 20 -100 20 -100 93 -3 92 -3 0 32 c0 27
-69 446 -124 754 -8 44 -17 97 -21 118 l-6 37 -118 0 -118 0 -281 -467z m390
70 c15 -92 25 -169 24 -171 -2 -1 -60 -1 -130 0 l-126 3 98 168 c53 92 99 167
102 167 4 0 18 -75 32 -167z"/>
<path d="M4002 5526 c-17 -20 -70 -97 -86 -123 -5 -10 6 -13 42 -13 48 0 53 3
124 69 40 38 71 71 68 74 -3 3 -33 7 -68 9 -53 3 -65 1 -80 -16z"/>
<path d="M5924 5341 c-161 -42 -269 -207 -267 -411 0 -129 43 -206 135 -244
49 -21 171 -21 231 0 l47 16 0 55 c0 53 -1 55 -22 49 -13 -3 -52 -11 -88 -18
-57 -10 -70 -9 -102 6 -54 26 -71 70 -66 165 8 135 75 245 165 270 52 15 65
14 130 -9 31 -11 57 -19 59 -17 7 9 44 88 44 96 0 30 -192 61 -266 42z"/>
<path d="M2976 5015 c-38 -180 -67 -328 -65 -330 2 -2 26 -5 52 -8 37 -3 50 0
56 12 8 16 69 295 90 415 12 64 18 77 25 55 7 -20 100 -309 128 -398 17 -56
28 -75 46 -82 34 -13 118 -11 129 4 8 9 129 578 137 642 0 6 -25 11 -56 13
-47 2 -57 0 -62 -15 -10 -34 -76 -359 -82 -406 -4 -26 -10 -50 -14 -52 -5 -3
-27 55 -50 128 -23 72 -56 179 -74 237 l-34 105 -79 3 -79 3 -68 -326z"/>
<path d="M3792 5188 c-253 -486 -264 -508 -249 -514 8 -3 39 -4 68 -2 l54 3
36 74 c20 40 41 76 48 80 6 4 52 6 103 4 51 -1 96 -3 100 -3 3 0 10 -30 13
-67 4 -38 12 -74 17 -80 6 -8 33 -13 64 -13 43 0 54 3 54 16 0 29 -61 629 -65
642 -3 8 -29 12 -84 12 l-79 0 -80 -152z m152 -110 l7 -128 -75 0 c-60 0 -74
3 -70 14 3 7 30 64 60 125 30 62 54 117 54 124 0 7 3 7 9 2 5 -6 12 -67 15
-137z"/>
<path d="M4307 5263 c-90 -429 -92 -462 -39 -524 60 -72 195 -92 296 -44 104
49 130 101 190 385 26 118 49 225 51 238 5 22 4 23 -62 20 l-68 -3 -28 -130
c-80 -379 -85 -392 -167 -416 -56 -17 -96 1 -110 50 -9 30 -3 72 38 261 27
124 47 228 45 233 -2 4 -32 7 -67 7 l-63 0 -16 -77z"/>
<path d="M4891 5290 c-6 -28 -11 -53 -11 -55 0 -3 34 -5 75 -5 73 0 75 -1 75
-25 0 -13 -21 -124 -47 -247 -25 -123 -47 -236 -47 -253 -1 -29 0 -30 49 -33
28 -1 56 1 63 6 6 5 25 73 42 153 56 275 81 384 88 391 4 4 40 8 81 10 l75 3
12 47 c6 26 9 49 6 52 -3 4 -105 6 -228 6 l-222 0 -11 -50z"/>
<path d="M5452 5293 c-92 -434 -123 -596 -118 -608 7 -19 85 -20 109 -2 13 9
35 94 82 321 36 169 65 314 65 322 0 11 -16 14 -64 14 l-64 0 -10 -47z"/>
<path d="M6286 5014 c-183 -353 -180 -344 -100 -344 54 0 68 12 109 98 l35 73
107 -3 108 -3 5 -73 c3 -49 10 -76 20 -82 16 -10 95 -8 106 2 8 9 -51 633 -62
650 -3 4 -40 8 -82 8 l-77 0 -169 -326z m247 9 l4 -72 -42 -7 c-46 -6 -105 2
-105 16 0 4 24 59 54 121 29 63 57 123 61 134 9 21 18 -45 28 -192z"/>
</g>
</svg>
